PathFileType	4	(X/Y/Z)	S:\OneDrive - The University of Tokyo\ìåëÂéˆã∆\ÉoÉCÉÅÉJ\ë™íË\hirabayashi_2\Trimmed\Trimmed_BarL40kg1.trc
DataRate	CameraRate	NumFrames	NumMarkers	Units	OrigDataRate	OrigDataStartFrame	OrigNumFrames
200.00	200.00	       9	12	mm	200.00	61	       150
Frame#	Time	BarR0			BarR50			BarR100			BarR130			BarR180			BarR230			BarL0			BarL50			BarL100			BarL130			BarL180			BarL230			
		X1	Y1	Z1	X2	Y2	Z2	X3	Y3	Z3	X4	Y4	Z4	X5	Y5	Z5	X6	Y6	Z6	X7	Y7	Z7	X8	Y8	Z8	X9	Y9	Z9	X10	Y10	Z10	X11	Y11	Z11	X12	Y12	Z12	

61	0.300	-575.93555	2755.37549	1664.43994	-604.79053	2306.18311	1662.33838	-637.32520	1851.79993	1662.01709	-660.77856	1349.40149	1661.94238	-690.08990	902.68707	1662.71094	-713.81891	454.64285	1664.04346	-1113.31287	2807.26538	1664.60767	-1140.55042	2355.65820	1658.47559	-1171.15771	1905.55029	1653.18201	-1198.55383	1404.11951	1653.04810	-1226.98462	952.71338	1658.78662	-1244.50830	506.90506	1667.45728	
62	0.305	-575.94293	2755.38330	1664.44739	-604.78253	2306.17212	1662.34204	-637.29742	1851.78394	1662.03357	-660.76312	1349.39368	1661.96863	-690.08948	902.69305	1662.71387	-713.80060	454.65054	1664.04858	-1113.30542	2807.26367	1664.62683	-1140.54407	2355.65918	1658.49487	-1171.18652	1905.53577	1653.17090	-1198.55981	1404.11829	1653.02722	-1226.98743	952.73065	1658.80066	-1244.48877	506.90656	1667.46179	
63	0.310	-575.94617	2755.39111	1664.43677	-604.78094	2306.18042	1662.35315	-637.32324	1851.81274	1662.02283	-660.76813	1349.40271	1661.94800	-690.06348	902.69763	1662.69519	-713.80194	454.63483	1664.06018	-1113.33752	2807.28003	1664.60974	-1140.55811	2355.66260	1658.47437	-1171.16992	1905.53308	1653.15100	-1198.54297	1404.13074	1653.03308	-1226.99817	952.72278	1658.79797	-1244.49133	506.91629	1667.46375	
64	0.315	-575.94769	2755.37305	1664.43958	-604.81097	2306.16406	1662.33618	-637.33447	1851.82910	1661.99036	-660.79199	1349.37036	1661.92310	-690.08221	902.70038	1662.68311	-713.79889	454.63397	1664.03857	-1113.33691	2807.29443	1664.60107	-1140.53271	2355.66870	1658.46594	-1171.17957	1905.53809	1653.16174	-1198.54663	1404.16382	1653.02881	-1226.98486	952.73395	1658.77869	-1244.51563	506.93491	1667.44958	
65	0.320	-575.94263	2755.37769	1664.41174	-604.83240	2306.14209	1662.33508	-637.32336	1851.83594	1661.96851	-660.75751	1349.38196	1661.90173	-690.08429	902.73193	1662.67297	-713.80731	454.62964	1664.04016	-1113.31750	2807.28223	1664.61951	-1140.55676	2355.65063	1658.46484	-1171.18994	1905.55200	1653.12976	-1198.54639	1404.11267	1653.01123	-1226.98181	952.72681	1658.75000	-1244.50159	506.90198	1667.41650	
66	0.325	-575.94592	2755.39233	1664.42578	-604.78540	2306.16406	1662.31177	-637.31458	1851.81177	1661.97791	-660.79095	1349.36731	1661.89185	-690.07288	902.71558	1662.67566	-713.80353	454.62924	1664.03064	-1113.32178	2807.28125	1664.61792	-1140.55151	2355.66772	1658.46375	-1171.18762	1905.53857	1653.12976	-1198.54663	1404.10266	1653.01416	-1226.98462	952.70068	1658.75537	-1244.49976	506.90845	1667.41357	
67	0.330	-575.94171	2755.37158	1664.43127	-604.80609	2306.19287	1662.34314	-637.33423	1851.80273	1662.00366	-660.77362	1349.37927	1661.91553	-690.07922	902.72479	1662.68506	-713.80817	454.62689	1664.03235	-1113.29456	2807.26221	1664.61719	-1140.56299	2355.64990	1658.48474	-1171.20447	1905.54517	1653.14990	-1198.54126	1404.12537	1653.02478	-1226.98669	952.71423	1658.76306	-1244.50476	506.89972	1667.44421	
68	0.335	-575.95001	2755.37256	1664.44043	-604.81610	2306.17163	1662.35181	-637.31323	1851.80310	1662.00354	-660.78198	1349.23145	1661.92822	-690.05518	902.70178	1662.71826	-713.81409	454.63962	1664.04248	-1113.30042	2807.27173	1664.61963	-1140.55786	2355.65942	1658.48535	-1171.17700	1905.52087	1653.16321	-1198.46448	1404.51575	1652.47400	-1226.98291	952.73071	1658.78540	-1244.50525	506.89774	1667.45300	
69	0.340	-575.94836	2755.37769	1664.43347	-604.78168	2306.17676	1662.32239	-637.33813	1851.81287	1662.00476	-660.78735	1349.37842	1661.94397	-690.05896	902.69421	1662.70703	-713.80957	454.65982	1664.03772	-1113.34412	2807.25464	1664.63794	-1140.52930	2355.63672	1658.47852	-1171.19666	1905.54297	1653.16199	-1198.54492	1404.10608	1653.03638	-1226.97424	952.72864	1658.80090	-1244.48303	506.89648	1667.46191	
